<mxfile host="app.diagrams.net" modified="2024-01-07T01:39:04.025Z" agent="Mozilla/5.0 (Windows NT 10.0; Win64; x64; rv:121.0) Gecko/20100101 Firefox/121.0" etag="A7peMxj8D30KZW9xZWLB" version="22.1.17" type="device">
  <diagram name="Page-1" id="oF1021kZmJnqnFJ4kBoQ">
    <mxGraphModel dx="2282" dy="1620" grid="1" gridSize="10" guides="1" tooltips="1" connect="1" arrows="1" fold="1" page="1" pageScale="1" pageWidth="850" pageHeight="1100" math="0" shadow="0">
      <root>
        <mxCell id="0" />
        <mxCell id="1" parent="0" />
        <mxCell id="UigbJbGij-r-r8j5Gcju-48" value="" style="rounded=1;whiteSpace=wrap;html=1;fillColor=#f5f5f5;fontColor=#333333;strokeColor=#666666;movable=1;resizable=1;rotatable=1;deletable=1;editable=1;locked=0;connectable=1;" parent="1" vertex="1">
          <mxGeometry x="-40" y="-10" width="670" height="780" as="geometry" />
        </mxCell>
        <mxCell id="UigbJbGij-r-r8j5Gcju-80" value="" style="rounded=1;whiteSpace=wrap;html=1;fillColor=#e1d5e7;strokeColor=#9673a6;" parent="1" vertex="1">
          <mxGeometry x="656.88" y="-120" width="326.25" height="840" as="geometry" />
        </mxCell>
        <mxCell id="UigbJbGij-r-r8j5Gcju-9" value="" style="rounded=1;whiteSpace=wrap;html=1;fillColor=#f8cecc;strokeColor=#b85450;" parent="1" vertex="1">
          <mxGeometry x="280" y="50" width="310" height="490" as="geometry" />
        </mxCell>
        <mxCell id="UigbJbGij-r-r8j5Gcju-1" value="&lt;font style=&quot;font-size: 20px;&quot;&gt;Folder Structure&lt;/font&gt;" style="text;html=1;strokeColor=none;fillColor=none;align=center;verticalAlign=middle;whiteSpace=wrap;rounded=0;" parent="1" vertex="1">
          <mxGeometry x="40" y="-40" width="210" height="30" as="geometry" />
        </mxCell>
        <mxCell id="UigbJbGij-r-r8j5Gcju-68" style="edgeStyle=orthogonalEdgeStyle;rounded=0;orthogonalLoop=1;jettySize=auto;html=1;exitX=0.997;exitY=0.524;exitDx=0;exitDy=0;strokeWidth=2;exitPerimeter=0;" parent="1" source="UigbJbGij-r-r8j5Gcju-2" target="UigbJbGij-r-r8j5Gcju-3" edge="1">
          <mxGeometry relative="1" as="geometry">
            <Array as="points">
              <mxPoint x="220" y="220" />
            </Array>
          </mxGeometry>
        </mxCell>
        <mxCell id="UigbJbGij-r-r8j5Gcju-2" value="" style="rounded=1;whiteSpace=wrap;html=1;fillColor=#dae8fc;strokeColor=#6c8ebf;" parent="1" vertex="1">
          <mxGeometry x="40" y="30" width="180" height="360" as="geometry" />
        </mxCell>
        <mxCell id="UigbJbGij-r-r8j5Gcju-45" style="edgeStyle=orthogonalEdgeStyle;rounded=0;orthogonalLoop=1;jettySize=auto;html=1;exitX=1;exitY=0.5;exitDx=0;exitDy=0;entryX=0;entryY=0.5;entryDx=0;entryDy=0;strokeWidth=2;" parent="1" source="UigbJbGij-r-r8j5Gcju-3" target="UigbJbGij-r-r8j5Gcju-21" edge="1">
          <mxGeometry relative="1" as="geometry" />
        </mxCell>
        <mxCell id="UigbJbGij-r-r8j5Gcju-46" style="edgeStyle=orthogonalEdgeStyle;rounded=0;orthogonalLoop=1;jettySize=auto;html=1;exitX=1;exitY=0.5;exitDx=0;exitDy=0;entryX=0;entryY=0.5;entryDx=0;entryDy=0;strokeWidth=2;" parent="1" source="UigbJbGij-r-r8j5Gcju-3" target="UigbJbGij-r-r8j5Gcju-35" edge="1">
          <mxGeometry relative="1" as="geometry">
            <Array as="points">
              <mxPoint x="620" y="195" />
              <mxPoint x="620" y="305" />
            </Array>
          </mxGeometry>
        </mxCell>
        <mxCell id="UigbJbGij-r-r8j5Gcju-3" value="" style="rounded=1;whiteSpace=wrap;html=1;" parent="1" vertex="1">
          <mxGeometry x="335" y="100" width="205" height="190" as="geometry" />
        </mxCell>
        <mxCell id="UigbJbGij-r-r8j5Gcju-4" value="&lt;b&gt;deploy-vpc&lt;/b&gt;" style="text;html=1;strokeColor=none;fillColor=none;align=center;verticalAlign=middle;whiteSpace=wrap;rounded=0;" parent="1" vertex="1">
          <mxGeometry x="45" y="30" width="90" height="30" as="geometry" />
        </mxCell>
        <mxCell id="UigbJbGij-r-r8j5Gcju-6" style="edgeStyle=orthogonalEdgeStyle;rounded=0;orthogonalLoop=1;jettySize=auto;html=1;exitX=0.5;exitY=1;exitDx=0;exitDy=0;" parent="1" source="UigbJbGij-r-r8j5Gcju-2" target="UigbJbGij-r-r8j5Gcju-2" edge="1">
          <mxGeometry relative="1" as="geometry" />
        </mxCell>
        <mxCell id="UigbJbGij-r-r8j5Gcju-7" value="&lt;b&gt;vpc&lt;/b&gt;" style="text;html=1;strokeColor=none;fillColor=none;align=center;verticalAlign=middle;whiteSpace=wrap;rounded=0;" parent="1" vertex="1">
          <mxGeometry x="335" y="100" width="60" height="30" as="geometry" />
        </mxCell>
        <mxCell id="UigbJbGij-r-r8j5Gcju-10" value="&lt;b&gt;components&lt;/b&gt;" style="text;html=1;strokeColor=none;fillColor=none;align=center;verticalAlign=middle;whiteSpace=wrap;rounded=0;" parent="1" vertex="1">
          <mxGeometry x="320" y="60" width="60" height="30" as="geometry" />
        </mxCell>
        <mxCell id="UigbJbGij-r-r8j5Gcju-12" value="main.tf" style="rounded=0;whiteSpace=wrap;html=1;" parent="1" vertex="1">
          <mxGeometry x="375" y="130" width="120" height="30" as="geometry" />
        </mxCell>
        <mxCell id="UigbJbGij-r-r8j5Gcju-13" value="&lt;div&gt;variables.tf&lt;/div&gt;" style="rounded=0;whiteSpace=wrap;html=1;" parent="1" vertex="1">
          <mxGeometry x="375" y="170" width="120" height="30" as="geometry" />
        </mxCell>
        <mxCell id="UigbJbGij-r-r8j5Gcju-15" value="outputs.tf" style="rounded=0;whiteSpace=wrap;html=1;" parent="1" vertex="1">
          <mxGeometry x="375" y="210" width="120" height="30" as="geometry" />
        </mxCell>
        <mxCell id="UigbJbGij-r-r8j5Gcju-16" value="&lt;div&gt;providers.tf&lt;/div&gt;" style="rounded=0;whiteSpace=wrap;html=1;" parent="1" vertex="1">
          <mxGeometry x="375" y="250" width="120" height="30" as="geometry" />
        </mxCell>
        <mxCell id="UigbJbGij-r-r8j5Gcju-21" value="" style="rounded=1;whiteSpace=wrap;html=1;fillColor=#d5e8d4;strokeColor=#82b366;" parent="1" vertex="1">
          <mxGeometry x="700" y="-60" width="240" height="230" as="geometry" />
        </mxCell>
        <mxCell id="UigbJbGij-r-r8j5Gcju-24" value="&lt;b&gt;aws-terraform-vpc.git&lt;/b&gt;" style="text;html=1;strokeColor=none;fillColor=none;align=center;verticalAlign=middle;whiteSpace=wrap;rounded=0;" parent="1" vertex="1">
          <mxGeometry x="707.5" y="-60" width="130" height="30" as="geometry" />
        </mxCell>
        <mxCell id="UigbJbGij-r-r8j5Gcju-30" value="" style="rounded=1;whiteSpace=wrap;html=1;" parent="1" vertex="1">
          <mxGeometry x="720" y="-30" width="200" height="170" as="geometry" />
        </mxCell>
        <mxCell id="UigbJbGij-r-r8j5Gcju-31" value="main.tf" style="rounded=0;whiteSpace=wrap;html=1;" parent="1" vertex="1">
          <mxGeometry x="758.75" y="-20" width="120" height="30" as="geometry" />
        </mxCell>
        <mxCell id="UigbJbGij-r-r8j5Gcju-32" value="&lt;div&gt;variables.tf&lt;/div&gt;" style="rounded=0;whiteSpace=wrap;html=1;" parent="1" vertex="1">
          <mxGeometry x="760" y="20" width="120" height="30" as="geometry" />
        </mxCell>
        <mxCell id="UigbJbGij-r-r8j5Gcju-33" value="outputs.tf" style="rounded=0;whiteSpace=wrap;html=1;" parent="1" vertex="1">
          <mxGeometry x="758.75" y="60" width="120" height="30" as="geometry" />
        </mxCell>
        <mxCell id="UigbJbGij-r-r8j5Gcju-34" value="&lt;div&gt;providers.tf&lt;/div&gt;" style="rounded=0;whiteSpace=wrap;html=1;" parent="1" vertex="1">
          <mxGeometry x="758.75" y="100" width="120" height="30" as="geometry" />
        </mxCell>
        <mxCell id="UigbJbGij-r-r8j5Gcju-35" value="" style="rounded=1;whiteSpace=wrap;html=1;fillColor=#d5e8d4;strokeColor=#82b366;" parent="1" vertex="1">
          <mxGeometry x="700" y="190" width="230" height="230" as="geometry" />
        </mxCell>
        <mxCell id="UigbJbGij-r-r8j5Gcju-36" value="&lt;b&gt;aws-terraform-vpc-endpoints&lt;/b&gt;" style="text;html=1;strokeColor=none;fillColor=none;align=center;verticalAlign=middle;whiteSpace=wrap;rounded=0;" parent="1" vertex="1">
          <mxGeometry x="701.25" y="435" width="180" height="30" as="geometry" />
        </mxCell>
        <mxCell id="UigbJbGij-r-r8j5Gcju-37" value="" style="rounded=1;whiteSpace=wrap;html=1;" parent="1" vertex="1">
          <mxGeometry x="722.5" y="230" width="191.25" height="180" as="geometry" />
        </mxCell>
        <mxCell id="UigbJbGij-r-r8j5Gcju-38" value="main.tf" style="rounded=0;whiteSpace=wrap;html=1;" parent="1" vertex="1">
          <mxGeometry x="758.75" y="240" width="120" height="30" as="geometry" />
        </mxCell>
        <mxCell id="UigbJbGij-r-r8j5Gcju-39" value="&lt;div&gt;variables.tf&lt;/div&gt;" style="rounded=0;whiteSpace=wrap;html=1;" parent="1" vertex="1">
          <mxGeometry x="758.75" y="280" width="120" height="30" as="geometry" />
        </mxCell>
        <mxCell id="UigbJbGij-r-r8j5Gcju-40" value="outputs.tf" style="rounded=0;whiteSpace=wrap;html=1;" parent="1" vertex="1">
          <mxGeometry x="758.75" y="320" width="120" height="30" as="geometry" />
        </mxCell>
        <mxCell id="UigbJbGij-r-r8j5Gcju-41" value="&lt;div&gt;providers.tf&lt;/div&gt;" style="rounded=0;whiteSpace=wrap;html=1;" parent="1" vertex="1">
          <mxGeometry x="758.75" y="360" width="120" height="30" as="geometry" />
        </mxCell>
        <mxCell id="UigbJbGij-r-r8j5Gcju-49" value="&lt;b&gt;aws-terraform-demo&lt;/b&gt;" style="text;html=1;strokeColor=none;fillColor=none;align=center;verticalAlign=middle;whiteSpace=wrap;rounded=0;" parent="1" vertex="1">
          <mxGeometry x="65" width="125" height="30" as="geometry" />
        </mxCell>
        <mxCell id="UigbJbGij-r-r8j5Gcju-51" value="module data source" style="text;html=1;strokeColor=none;fillColor=none;align=center;verticalAlign=middle;whiteSpace=wrap;rounded=0;" parent="1" vertex="1">
          <mxGeometry x="643.75" y="240" width="60" height="30" as="geometry" />
        </mxCell>
        <mxCell id="UigbJbGij-r-r8j5Gcju-52" value="module data source" style="text;html=1;strokeColor=none;fillColor=none;align=center;verticalAlign=middle;whiteSpace=wrap;rounded=0;" parent="1" vertex="1">
          <mxGeometry x="640" y="10" width="60" height="30" as="geometry" />
        </mxCell>
        <mxCell id="UigbJbGij-r-r8j5Gcju-53" value="" style="rounded=1;whiteSpace=wrap;html=1;fillColor=#dae8fc;strokeColor=#6c8ebf;" parent="1" vertex="1">
          <mxGeometry x="40" y="430" width="170" height="315" as="geometry" />
        </mxCell>
        <mxCell id="UigbJbGij-r-r8j5Gcju-54" value="&lt;b&gt;deploy-eks&lt;/b&gt;" style="text;html=1;strokeColor=none;fillColor=none;align=center;verticalAlign=middle;whiteSpace=wrap;rounded=0;" parent="1" vertex="1">
          <mxGeometry x="45" y="430" width="90" height="30" as="geometry" />
        </mxCell>
        <mxCell id="UigbJbGij-r-r8j5Gcju-77" style="edgeStyle=orthogonalEdgeStyle;rounded=0;orthogonalLoop=1;jettySize=auto;html=1;exitX=1;exitY=0.5;exitDx=0;exitDy=0;strokeWidth=2;" parent="1" source="UigbJbGij-r-r8j5Gcju-61" target="UigbJbGij-r-r8j5Gcju-70" edge="1">
          <mxGeometry relative="1" as="geometry" />
        </mxCell>
        <mxCell id="UigbJbGij-r-r8j5Gcju-61" value="" style="rounded=1;whiteSpace=wrap;html=1;" parent="1" vertex="1">
          <mxGeometry x="320" y="320" width="205" height="190" as="geometry" />
        </mxCell>
        <mxCell id="UigbJbGij-r-r8j5Gcju-62" value="&lt;b&gt;eks&lt;/b&gt;" style="text;html=1;strokeColor=none;fillColor=none;align=center;verticalAlign=middle;whiteSpace=wrap;rounded=0;" parent="1" vertex="1">
          <mxGeometry x="320" y="320" width="60" height="30" as="geometry" />
        </mxCell>
        <mxCell id="UigbJbGij-r-r8j5Gcju-64" value="main.tf" style="rounded=0;whiteSpace=wrap;html=1;" parent="1" vertex="1">
          <mxGeometry x="360" y="350" width="120" height="30" as="geometry" />
        </mxCell>
        <mxCell id="UigbJbGij-r-r8j5Gcju-65" value="&lt;div&gt;variables.tf&lt;/div&gt;" style="rounded=0;whiteSpace=wrap;html=1;" parent="1" vertex="1">
          <mxGeometry x="360" y="390" width="120" height="30" as="geometry" />
        </mxCell>
        <mxCell id="UigbJbGij-r-r8j5Gcju-66" value="&lt;div&gt;providers.tf&lt;/div&gt;" style="rounded=0;whiteSpace=wrap;html=1;" parent="1" vertex="1">
          <mxGeometry x="360" y="470" width="120" height="30" as="geometry" />
        </mxCell>
        <mxCell id="UigbJbGij-r-r8j5Gcju-67" value="outputs.tf" style="rounded=0;whiteSpace=wrap;html=1;" parent="1" vertex="1">
          <mxGeometry x="360" y="430" width="120" height="30" as="geometry" />
        </mxCell>
        <mxCell id="UigbJbGij-r-r8j5Gcju-69" style="edgeStyle=orthogonalEdgeStyle;rounded=0;orthogonalLoop=1;jettySize=auto;html=1;exitX=1;exitY=0.5;exitDx=0;exitDy=0;entryX=0.01;entryY=0.579;entryDx=0;entryDy=0;entryPerimeter=0;strokeWidth=2;" parent="1" source="UigbJbGij-r-r8j5Gcju-53" target="UigbJbGij-r-r8j5Gcju-61" edge="1">
          <mxGeometry relative="1" as="geometry" />
        </mxCell>
        <mxCell id="UigbJbGij-r-r8j5Gcju-70" value="" style="rounded=1;whiteSpace=wrap;html=1;fillColor=#d5e8d4;strokeColor=#82b366;" parent="1" vertex="1">
          <mxGeometry x="700" y="435" width="230" height="230" as="geometry" />
        </mxCell>
        <mxCell id="UigbJbGij-r-r8j5Gcju-71" value="&lt;b&gt;aws-terraform-eks.git&lt;/b&gt;" style="text;html=1;strokeColor=none;fillColor=none;align=center;verticalAlign=middle;whiteSpace=wrap;rounded=0;" parent="1" vertex="1">
          <mxGeometry x="711.25" y="440" width="180" height="30" as="geometry" />
        </mxCell>
        <mxCell id="UigbJbGij-r-r8j5Gcju-72" value="" style="rounded=1;whiteSpace=wrap;html=1;" parent="1" vertex="1">
          <mxGeometry x="722.5" y="475" width="191.25" height="180" as="geometry" />
        </mxCell>
        <mxCell id="q3hkeVmLkQczTrow5lfv-1" value="" style="rounded=1;whiteSpace=wrap;html=1;" parent="1" vertex="1">
          <mxGeometry x="60" y="60" width="140" height="140" as="geometry" />
        </mxCell>
        <mxCell id="UigbJbGij-r-r8j5Gcju-73" value="main.tf" style="rounded=0;whiteSpace=wrap;html=1;" parent="1" vertex="1">
          <mxGeometry x="758.75" y="485" width="120" height="30" as="geometry" />
        </mxCell>
        <mxCell id="UigbJbGij-r-r8j5Gcju-74" value="&lt;div&gt;variables.tf&lt;/div&gt;" style="rounded=0;whiteSpace=wrap;html=1;" parent="1" vertex="1">
          <mxGeometry x="758.75" y="525" width="120" height="30" as="geometry" />
        </mxCell>
        <mxCell id="UigbJbGij-r-r8j5Gcju-75" value="outputs.tf" style="rounded=0;whiteSpace=wrap;html=1;" parent="1" vertex="1">
          <mxGeometry x="758.75" y="565" width="120" height="30" as="geometry" />
        </mxCell>
        <mxCell id="UigbJbGij-r-r8j5Gcju-76" value="&lt;div&gt;providers.tf&lt;/div&gt;" style="rounded=0;whiteSpace=wrap;html=1;" parent="1" vertex="1">
          <mxGeometry x="758.75" y="605" width="120" height="30" as="geometry" />
        </mxCell>
        <mxCell id="UigbJbGij-r-r8j5Gcju-78" value="module data source" style="text;html=1;strokeColor=none;fillColor=none;align=center;verticalAlign=middle;whiteSpace=wrap;rounded=0;" parent="1" vertex="1">
          <mxGeometry x="596.88" y="565" width="60" height="30" as="geometry" />
        </mxCell>
        <mxCell id="UigbJbGij-r-r8j5Gcju-79" value="&lt;b&gt;aws-terraform-vpc-endpoints.git&lt;/b&gt;" style="text;html=1;strokeColor=none;fillColor=none;align=center;verticalAlign=middle;whiteSpace=wrap;rounded=0;" parent="1" vertex="1">
          <mxGeometry x="711.25" y="200" width="202.5" height="30" as="geometry" />
        </mxCell>
        <mxCell id="UigbJbGij-r-r8j5Gcju-81" value="&lt;b&gt;Github&lt;/b&gt;" style="text;html=1;strokeColor=none;fillColor=none;align=center;verticalAlign=middle;whiteSpace=wrap;rounded=0;" parent="1" vertex="1">
          <mxGeometry x="680" y="-110" width="60" height="30" as="geometry" />
        </mxCell>
        <mxCell id="q3hkeVmLkQczTrow5lfv-6" value="&lt;font size=&quot;1&quot;&gt;&lt;b&gt;Dev&lt;/b&gt;&lt;/font&gt;" style="text;html=1;strokeColor=none;fillColor=none;align=center;verticalAlign=middle;whiteSpace=wrap;rounded=0;" parent="1" vertex="1">
          <mxGeometry x="52.5" y="55" width="60" height="30" as="geometry" />
        </mxCell>
        <mxCell id="q3hkeVmLkQczTrow5lfv-9" value="" style="rounded=1;whiteSpace=wrap;html=1;" parent="1" vertex="1">
          <mxGeometry x="57.5" y="465" width="135" height="85" as="geometry" />
        </mxCell>
        <mxCell id="q3hkeVmLkQczTrow5lfv-10" value="" style="rounded=1;whiteSpace=wrap;html=1;" parent="1" vertex="1">
          <mxGeometry x="57.5" y="570" width="135" height="80" as="geometry" />
        </mxCell>
        <mxCell id="q3hkeVmLkQczTrow5lfv-11" value="" style="rounded=1;whiteSpace=wrap;html=1;" parent="1" vertex="1">
          <mxGeometry x="60" y="662.5" width="135" height="75" as="geometry" />
        </mxCell>
        <mxCell id="q3hkeVmLkQczTrow5lfv-15" value="&lt;font size=&quot;1&quot;&gt;&lt;b&gt;Dev&lt;/b&gt;&lt;/font&gt;" style="text;html=1;strokeColor=none;fillColor=none;align=center;verticalAlign=middle;whiteSpace=wrap;rounded=0;" parent="1" vertex="1">
          <mxGeometry x="50" y="460" width="60" height="30" as="geometry" />
        </mxCell>
        <mxCell id="q3hkeVmLkQczTrow5lfv-16" value="&lt;font size=&quot;1&quot;&gt;&lt;b&gt;stgn&lt;/b&gt;&lt;/font&gt;" style="text;html=1;strokeColor=none;fillColor=none;align=center;verticalAlign=middle;whiteSpace=wrap;rounded=0;" parent="1" vertex="1">
          <mxGeometry x="45" y="565" width="60" height="30" as="geometry" />
        </mxCell>
        <mxCell id="q3hkeVmLkQczTrow5lfv-17" value="&lt;font size=&quot;1&quot;&gt;&lt;b&gt;prod&lt;/b&gt;&lt;/font&gt;" style="text;html=1;strokeColor=none;fillColor=none;align=center;verticalAlign=middle;whiteSpace=wrap;rounded=0;" parent="1" vertex="1">
          <mxGeometry x="50" y="655" width="60" height="30" as="geometry" />
        </mxCell>
        <mxCell id="CCT2Szq4VaG5fbJA01sg-2" value="" style="rounded=1;whiteSpace=wrap;html=1;" vertex="1" parent="1">
          <mxGeometry x="65" y="680" width="120" height="50" as="geometry" />
        </mxCell>
        <mxCell id="CCT2Szq4VaG5fbJA01sg-4" value="&lt;font style=&quot;font-size: 10px;&quot;&gt;ca-central-1&lt;/font&gt;" style="text;html=1;strokeColor=none;fillColor=none;align=center;verticalAlign=middle;whiteSpace=wrap;rounded=0;fontStyle=1" vertex="1" parent="1">
          <mxGeometry x="60" y="677.5" width="85" height="30" as="geometry" />
        </mxCell>
        <mxCell id="CCT2Szq4VaG5fbJA01sg-6" value="" style="rounded=1;whiteSpace=wrap;html=1;" vertex="1" parent="1">
          <mxGeometry x="65" y="590" width="120" height="52.5" as="geometry" />
        </mxCell>
        <mxCell id="q3hkeVmLkQczTrow5lfv-13" value="&lt;div&gt;terraform.tfvars&lt;/div&gt;" style="rounded=0;whiteSpace=wrap;html=1;" parent="1" vertex="1">
          <mxGeometry x="80" y="615" width="90" height="15" as="geometry" />
        </mxCell>
        <mxCell id="CCT2Szq4VaG5fbJA01sg-7" value="&lt;font style=&quot;font-size: 10px;&quot;&gt;ca-central-1&lt;/font&gt;" style="text;html=1;strokeColor=none;fillColor=none;align=center;verticalAlign=middle;whiteSpace=wrap;rounded=0;fontStyle=1" vertex="1" parent="1">
          <mxGeometry x="57.5" y="585" width="85" height="30" as="geometry" />
        </mxCell>
        <mxCell id="CCT2Szq4VaG5fbJA01sg-8" value="" style="rounded=1;whiteSpace=wrap;html=1;" vertex="1" parent="1">
          <mxGeometry x="65" y="485" width="120" height="60" as="geometry" />
        </mxCell>
        <mxCell id="CCT2Szq4VaG5fbJA01sg-9" value="&lt;font style=&quot;font-size: 10px;&quot;&gt;ca-central-1&lt;/font&gt;" style="text;html=1;strokeColor=none;fillColor=none;align=center;verticalAlign=middle;whiteSpace=wrap;rounded=0;fontStyle=1" vertex="1" parent="1">
          <mxGeometry x="57.5" y="485" width="85" height="30" as="geometry" />
        </mxCell>
        <mxCell id="CCT2Szq4VaG5fbJA01sg-16" value="" style="rounded=1;whiteSpace=wrap;html=1;" vertex="1" parent="1">
          <mxGeometry x="60" y="285" width="140" height="85" as="geometry" />
        </mxCell>
        <mxCell id="CCT2Szq4VaG5fbJA01sg-17" value="&lt;font size=&quot;1&quot;&gt;&lt;b&gt;prod&lt;/b&gt;&lt;/font&gt;" style="text;html=1;strokeColor=none;fillColor=none;align=center;verticalAlign=middle;whiteSpace=wrap;rounded=0;" vertex="1" parent="1">
          <mxGeometry x="55" y="280" width="60" height="30" as="geometry" />
        </mxCell>
        <mxCell id="CCT2Szq4VaG5fbJA01sg-18" value="" style="rounded=1;whiteSpace=wrap;html=1;" vertex="1" parent="1">
          <mxGeometry x="70" y="310" width="120" height="50" as="geometry" />
        </mxCell>
        <mxCell id="CCT2Szq4VaG5fbJA01sg-20" value="&lt;font style=&quot;font-size: 10px;&quot;&gt;ca-central-1&lt;/font&gt;" style="text;html=1;strokeColor=none;fillColor=none;align=center;verticalAlign=middle;whiteSpace=wrap;rounded=0;fontStyle=1" vertex="1" parent="1">
          <mxGeometry x="72.5" y="305" width="85" height="30" as="geometry" />
        </mxCell>
        <mxCell id="CCT2Szq4VaG5fbJA01sg-21" value="" style="rounded=1;whiteSpace=wrap;html=1;" vertex="1" parent="1">
          <mxGeometry x="62.5" y="205" width="137.5" height="75" as="geometry" />
        </mxCell>
        <mxCell id="CCT2Szq4VaG5fbJA01sg-22" value="&lt;font size=&quot;1&quot;&gt;&lt;b&gt;stgn&lt;/b&gt;&lt;/font&gt;" style="text;html=1;strokeColor=none;fillColor=none;align=center;verticalAlign=middle;whiteSpace=wrap;rounded=0;" vertex="1" parent="1">
          <mxGeometry x="52.5" y="200" width="60" height="30" as="geometry" />
        </mxCell>
        <mxCell id="CCT2Szq4VaG5fbJA01sg-23" value="" style="rounded=1;whiteSpace=wrap;html=1;" vertex="1" parent="1">
          <mxGeometry x="75" y="225" width="115" height="50" as="geometry" />
        </mxCell>
        <mxCell id="CCT2Szq4VaG5fbJA01sg-25" value="&lt;font style=&quot;font-size: 10px;&quot;&gt;ca-central-1&lt;/font&gt;" style="text;html=1;strokeColor=none;fillColor=none;align=center;verticalAlign=middle;whiteSpace=wrap;rounded=0;fontStyle=1" vertex="1" parent="1">
          <mxGeometry x="72.5" y="222.5" width="85" height="30" as="geometry" />
        </mxCell>
        <mxCell id="CCT2Szq4VaG5fbJA01sg-26" value="" style="rounded=1;whiteSpace=wrap;html=1;" vertex="1" parent="1">
          <mxGeometry x="73.75" y="87.5" width="116.25" height="50" as="geometry" />
        </mxCell>
        <mxCell id="CCT2Szq4VaG5fbJA01sg-28" value="&lt;font style=&quot;font-size: 10px;&quot;&gt;ca-central-1&lt;/font&gt;" style="text;html=1;strokeColor=none;fillColor=none;align=center;verticalAlign=middle;whiteSpace=wrap;rounded=0;fontStyle=1" vertex="1" parent="1">
          <mxGeometry x="70" y="82.5" width="85" height="30" as="geometry" />
        </mxCell>
        <mxCell id="CCT2Szq4VaG5fbJA01sg-29" value="" style="rounded=1;whiteSpace=wrap;html=1;" vertex="1" parent="1">
          <mxGeometry x="73.75" y="142.5" width="116.25" height="50" as="geometry" />
        </mxCell>
        <mxCell id="CCT2Szq4VaG5fbJA01sg-31" value="&lt;font style=&quot;font-size: 10px;&quot;&gt;us-west-2&lt;/font&gt;" style="text;html=1;strokeColor=none;fillColor=none;align=center;verticalAlign=middle;whiteSpace=wrap;rounded=0;fontStyle=1" vertex="1" parent="1">
          <mxGeometry x="65" y="137.5" width="85" height="30" as="geometry" />
        </mxCell>
        <mxCell id="CCT2Szq4VaG5fbJA01sg-33" value="&lt;div&gt;terraform.tfvars&lt;/div&gt;" style="rounded=0;whiteSpace=wrap;html=1;" vertex="1" parent="1">
          <mxGeometry x="78.75" y="515" width="90" height="15" as="geometry" />
        </mxCell>
        <mxCell id="CCT2Szq4VaG5fbJA01sg-34" value="&lt;div&gt;terraform.tfvars&lt;/div&gt;" style="rounded=0;whiteSpace=wrap;html=1;" vertex="1" parent="1">
          <mxGeometry x="75" y="707.5" width="90" height="15" as="geometry" />
        </mxCell>
        <mxCell id="CCT2Szq4VaG5fbJA01sg-35" value="&lt;div&gt;terraform.tfvars&lt;/div&gt;" style="rounded=0;whiteSpace=wrap;html=1;" vertex="1" parent="1">
          <mxGeometry x="82.5" y="335" width="90" height="15" as="geometry" />
        </mxCell>
        <mxCell id="CCT2Szq4VaG5fbJA01sg-36" value="&lt;div&gt;terraform.tfvars&lt;/div&gt;" style="rounded=0;whiteSpace=wrap;html=1;" vertex="1" parent="1">
          <mxGeometry x="86.88" y="250" width="90" height="15" as="geometry" />
        </mxCell>
        <mxCell id="CCT2Szq4VaG5fbJA01sg-38" value="&lt;div&gt;terraform.tfvars&lt;/div&gt;" style="rounded=0;whiteSpace=wrap;html=1;" vertex="1" parent="1">
          <mxGeometry x="85" y="167.5" width="90" height="15" as="geometry" />
        </mxCell>
        <mxCell id="CCT2Szq4VaG5fbJA01sg-39" value="&lt;div&gt;terraform.tfvars&lt;/div&gt;" style="rounded=0;whiteSpace=wrap;html=1;" vertex="1" parent="1">
          <mxGeometry x="82.5" y="112.5" width="90" height="15" as="geometry" />
        </mxCell>
      </root>
    </mxGraphModel>
  </diagram>
</mxfile>
